<svg xmlns="http://www.w3.org/2000/svg" viewBox="0 0 89.34 143.96"><defs><style>.cls-1{fill:#ec4240;}</style></defs><g id="Layer_2" data-name="Layer 2"><g id="Layer_1-2" data-name="Layer 1"><g id="Group_8" data-name="Group 8"><path id="Path_1" data-name="Path 1" class="cls-1" d="M14.18,48.66A8.2,8.2,0,0,0,2.59,60.26a16.43,16.43,0,0,1,0,23.2,8.2,8.2,0,0,0,11.22,12c.13-.12.25-.25.37-.38A32.83,32.83,0,0,0,14.18,48.66Z"/><path id="Path_2" data-name="Path 2" class="cls-1" d="M37.38,25.47a8.2,8.2,0,0,0-11.6,11.6,49.15,49.15,0,0,1,0,69.51l0,0a8.2,8.2,0,0,0,11.6,11.59,65.55,65.55,0,0,0,0-92.71l0,0Z"/><path id="Path_3" data-name="Path 3" class="cls-1" d="M60.56,2.28A8.2,8.2,0,0,0,49,13.88a82.08,82.08,0,0,1,0,116A8.2,8.2,0,1,0,60.3,141.69l.26-.27A98.48,98.48,0,0,0,60.56,2.28Z"/></g></g></g></svg>