<svg height='100px' width='100px'  fill="#FFFFFF" xmlns="http://www.w3.org/2000/svg" xmlns:xlink="http://www.w3.org/1999/xlink" version="1.1" x="0px" y="0px" viewBox="0 0 90 90" enable-background="new 0 0 90 90" xml:space="preserve"><path d="M79.018,8.902H56.25v6.116c0,0.111-0.008,0.219-0.021,0.327h17.523c1.465,0,2.65,1.187,2.65,2.651V73.84  c0,1.465-1.186,2.652-2.65,2.652H16.248c-1.464,0-2.651-1.188-2.651-2.652V17.995c0-1.464,1.188-2.651,2.651-2.651h17.523  c-0.013-0.108-0.022-0.216-0.022-0.327V8.902H10.983c-1.464,0-2.651,1.188-2.651,2.651v68.731c0,1.464,1.187,2.651,2.651,2.651  h68.035c1.463,0,2.65-1.188,2.65-2.651V11.553C81.668,10.09,80.481,8.902,79.018,8.902z"></path><path d="M55.235,14.281c0,1.138-1.082,2.061-2.422,2.061H37.104c-1.336,0-2.42-0.922-2.42-2.061V9.126  c0-1.137,1.084-2.061,2.42-2.061h15.708c1.34,0,2.422,0.924,2.422,2.061V14.281z"></path><circle cx="22.248" cy="28.714" r="4.344"></circle><circle cx="22.248" cy="46.32" r="4.344"></circle><circle cx="22.248" cy="63.755" r="4.344"></circle><rect x="30.642" y="25.636" width="35.345" height="4.844"></rect><rect x="30.642" y="43.896" width="35.345" height="4.845"></rect><rect x="30.642" y="61.333" width="35.345" height="4.844"></rect></svg>