<?xml version="1.0" encoding="utf-8"?>
<!-- Generator: Adobe Illustrator 25.0.1, SVG Export Plug-In . SVG Version: 6.00 Build 0)  -->
<svg version="1.1" id="Layer_1" xmlns="http://www.w3.org/2000/svg" xmlns:xlink="http://www.w3.org/1999/xlink" x="0px" y="0px"
	 viewBox="0 0 100 100" style="enable-background:new 0 0 100 100;" xml:space="preserve">
<style type="text/css">
	.st0{fill:#FFFFFF;}
</style>
<path class="st0" d="M50,24.2c-13.6,0-24.7,11.6-24.7,25.8S36.4,75.8,50,75.8S74.7,64.2,74.7,50S63.6,24.2,50,24.2z M50,68.4
	c-9.7,0-17.6-8.3-17.6-18.4S40.3,31.6,50,31.6S67.6,39.9,67.6,50S59.7,68.4,50,68.4z M94,46.3h-9c-1.6-17.3-15-31.3-31.5-33V3.9h-7
	v9.4C29.9,15,16.5,29,15,46.3H6v7.4h9c1.6,17.3,15,31.3,31.5,33v9.4h7v-9.4C70.1,85,83.5,71,85,53.7h9V46.3z M50,79.5
	c-15.5,0-28.2-13.3-28.2-29.5S34.5,20.5,50,20.5S78.2,33.8,78.2,50S65.5,79.5,50,79.5z"/>
</svg>
