<svg height='100px' width='100px'  fill="#FFFFFF" xmlns="http://www.w3.org/2000/svg" xmlns:xlink="http://www.w3.org/1999/xlink" version="1.1" x="0px" y="0px" viewBox="0 0 100 100" style="enable-background:new 0 0 100 100;" xml:space="preserve"><g><path d="M50,10C26.3,10,7,26.1,7,46c0,9.4,4.4,18.5,12.2,25.2l-4.1,11.3c-1,2.4-0.4,5.1,1.5,6.9c1.2,1.1,2.6,1.6,4.1,1.6   c1,0,2.1-0.3,3.1-0.8l15.8-9.2C43,81.6,46.5,82,50,82c23.7,0,43-16.1,43-36S73.7,10,50,10z M50,74c-3.3,0-6.5-0.4-9.6-1.1l-0.5-0.1   c-1-0.2-2-0.1-2.9,0.4l-12.6,7.3l3.4-9.4c0.6-1.7,0-3.5-1.4-4.6L26,66.4C18.9,61,15,53.8,15,46c0-15.4,15.7-28,35-28s35,12.6,35,28   S69.3,74,50,74z"></path><path d="M50,27c-2.2,0-4,1.8-4,4v16c0,2.2,1.8,4,4,4s4-1.8,4-4V31C54,28.8,52.2,27,50,27z"></path><path d="M49.2,55.1c-0.3,0-0.5,0.1-0.8,0.2c-0.2,0.1-0.5,0.2-0.7,0.4c-0.2,0.1-0.4,0.3-0.6,0.5s-0.4,0.4-0.5,0.6   c-0.1,0.2-0.3,0.4-0.4,0.7c-0.1,0.2-0.2,0.5-0.2,0.8S46,58.7,46,59c0,1,0.4,2.1,1.2,2.8C47.9,62.6,49,63,50,63s2.1-0.4,2.8-1.2   C53.6,61.1,54,60,54,59s-0.4-2.1-1.2-2.8C51.9,55.2,50.5,54.8,49.2,55.1z"></path></g></svg>