<svg height='100px' width='100px'  fill="#FFFFFF" xmlns="http://www.w3.org/2000/svg" xmlns:xlink="http://www.w3.org/1999/xlink" version="1.1" x="0px" y="0px" viewBox="0 0 100 100" enable-background="new 0 0 100 100" xml:space="preserve"><path fill-rule="evenodd" clip-rule="evenodd" d="M39.9,5C29.2,5,19.2,9.8,12.5,18.2c-10.1,12.6-9.9,31.5,0.4,44  c6.7,8.1,16.6,12.7,27,12.7c6.6,0,13.1-1.9,18.7-5.4l0.6-0.4L82.9,93c2.6,2.7,7.3,2.7,9.9,0c1.4-1.4,2.2-3.2,2.2-5.1  c0-1.9-0.7-3.6-2-5L69.2,59.1l0.4-0.6c8.7-13.9,6.6-31.6-4.9-43.2C58.1,8.6,49.3,5,39.9,5 M57.5,57.6c-4.7,4.7-11,7.3-17.6,7.3  c-6.7,0-12.9-2.6-17.6-7.3C17.6,52.9,15,46.6,15,40c0-6.7,2.6-12.9,7.3-17.6c4.7-4.7,11-7.3,17.6-7.3c6.7,0,12.9,2.6,17.6,7.3  c4.7,4.7,7.3,11,7.3,17.6S62.2,52.9,57.5,57.6"></path></svg>